<svg width="440" height="440" viewBox="0 0 440 440" fill="none" xmlns="http://www.w3.org/2000/svg">
<rect width="440" height="440" rx="220" fill="white"/>
<path d="M257.549 100C253.191 103.287 238.373 110.472 219.217 111.637L219.894 122.755C231.186 122.068 240.877 119.759 248.592 116.938L255.867 134.32C252.597 151.357 245.129 175.297 234.972 194.657C229.932 201.789 217.3 223.157 209.921 228.274C216.614 228.279 222.284 231.746 225.771 236.373C226.297 237.076 226.784 237.806 227.231 238.562L275.917 182.23L280.657 193.555C261.48 203.397 248.32 223.379 248.32 246.362C248.32 279.054 274.947 305.673 307.645 305.673C340.343 305.673 366.971 279.054 366.971 246.362C366.971 213.67 340.343 187.05 307.645 187.05C302.014 187.047 296.411 187.849 291.006 189.43L267.454 133.153L274.289 132.506C275.372 130.335 277.819 125.24 272.359 120.925L262.528 121.383L258.76 112.381C260.927 111.191 262.78 110.007 264.256 108.893L257.549 100ZM162.477 141.183C158.036 141.163 154.013 141.613 151.264 142.847C147.177 144.682 148.374 155.94 154.631 159.76C159.082 160.032 163.13 159.667 167.644 158.946L170.539 165.981H98.7283V177.12H106.921L109.496 186.129C88.0878 195.093 73 216.258 73 240.865C73 273.557 99.6282 300.178 132.326 300.178C154.604 300.178 174.06 287.819 184.2 269.604L172.269 267.873C163.62 280.659 148.981 289.039 132.326 289.039C105.646 289.039 84.1387 267.536 84.1387 240.865C84.1387 221.24 95.7924 204.425 112.575 196.905L121.991 229.855C123.786 228.879 125.843 228.274 128.051 228.274H133.124L123.203 193.561C126.21 192.985 129.264 192.695 132.326 192.692C140.403 192.692 147.999 194.674 154.675 198.162L135.061 228.274H148.354L163.885 204.433C171.027 210.618 176.322 218.87 178.852 228.274H190.298C187.419 215.026 180.101 203.41 169.98 195.075L177.659 183.286L196.174 228.274H208.433L178.832 156.865C182.277 156.199 186.116 155.479 190.576 154.762C200.245 153.206 197.368 147.971 190.359 145.29C187.898 144.349 173.827 141.232 162.478 141.183H162.477ZM263.215 151.877L271.114 170.753L242.915 203.379C243.564 202.21 244.207 201.029 244.835 199.832C252.84 184.573 259.083 167.235 263.215 151.876V151.877ZM118.504 177.119H168.381L160.756 188.826C152.308 184.193 142.618 181.553 132.326 181.553C128.148 181.553 124.07 181.99 120.132 182.816L118.504 177.119ZM307.645 198.188C334.325 198.188 355.832 219.691 355.832 246.361C355.832 273.031 334.325 294.534 307.645 294.534C280.965 294.534 259.459 273.031 259.459 246.361C259.459 227.901 269.767 211.923 284.957 203.831L302.508 245.764L312.783 241.463L295.334 199.771C299.353 198.718 303.491 198.186 307.645 198.188V198.188ZM128.05 239.413C127.457 239.413 127.064 239.569 126.373 240.425C125.681 241.282 125.037 242.83 124.9 244.386C124.764 245.941 125.102 247.393 125.706 248.338C126.308 249.279 127.041 249.967 129.051 250.346L204.682 261.321L204.769 261.337C210.965 262.433 214.302 261.22 216.34 259.55C218.378 257.879 219.503 255.254 219.612 252.086C219.721 248.916 218.654 245.439 216.874 243.077C215.094 240.714 212.982 239.413 209.907 239.413H128.05Z" fill="#335035"/>
<path d="M138.949 340.103C138.949 339.257 138.957 338.2 138.972 336.931C139.004 335.646 139.035 334.236 139.066 332.701C139.113 331.15 139.16 329.536 139.207 327.86C139.254 326.168 139.309 324.476 139.372 322.784C139.434 321.076 139.497 319.439 139.56 317.872C139.622 316.306 139.685 314.872 139.748 313.572C139.81 312.272 139.873 311.175 139.936 310.282C141.126 310.031 142.403 309.828 143.766 309.671C145.145 309.514 146.688 309.436 148.396 309.436C150.354 309.436 152.046 309.702 153.472 310.235C154.897 310.752 155.994 311.567 156.762 312.679C157.529 313.791 157.913 315.217 157.913 316.956C157.913 318.961 157.529 320.63 156.762 321.961C156.01 323.277 154.89 324.257 153.401 324.899C151.929 325.541 150.111 325.862 147.949 325.862C147.37 325.862 146.727 325.839 146.022 325.792C145.333 325.729 144.706 325.643 144.142 325.533C144.127 326.019 144.103 326.802 144.072 327.883C144.04 328.949 144.001 330.186 143.954 331.596C143.923 333.006 143.892 334.463 143.86 335.967C143.829 337.471 143.813 338.889 143.813 340.221C143.547 340.221 143.194 340.213 142.756 340.197C142.317 340.197 141.855 340.19 141.369 340.174C140.899 340.174 140.445 340.158 140.006 340.127C139.583 340.111 139.231 340.103 138.949 340.103ZM144.119 321.562C144.636 321.64 145.215 321.711 145.858 321.773C146.5 321.836 147.15 321.867 147.808 321.867C148.842 321.867 149.821 321.726 150.746 321.444C151.67 321.147 152.422 320.653 153.002 319.964C153.597 319.275 153.895 318.319 153.895 317.097C153.895 315.53 153.417 314.449 152.461 313.854C151.521 313.259 150.276 312.961 148.725 312.961C148.129 312.961 147.464 312.992 146.727 313.055C145.991 313.118 145.176 313.204 144.283 313.313C144.283 313.407 144.275 313.729 144.26 314.277C144.26 314.81 144.252 315.444 144.236 316.18C144.236 316.917 144.228 317.669 144.213 318.436C144.197 319.188 144.181 319.854 144.166 320.434C144.15 321.014 144.134 321.39 144.119 321.562ZM179.575 339.939C177.883 339.845 176.23 339.759 174.616 339.68C173.018 339.618 171.365 339.571 169.658 339.539C168.655 339.508 167.605 339.477 166.509 339.445C165.412 339.414 164.362 339.391 163.36 339.375C163.266 336.915 163.195 334.487 163.148 332.09C163.117 329.693 163.101 327.413 163.101 325.251C163.101 321.35 163.125 318.123 163.172 315.569C163.234 313 163.297 311.238 163.36 310.282C166.164 309.812 168.765 309.459 171.162 309.224C173.559 308.974 175.564 308.809 177.178 308.731C178.791 308.637 179.81 308.59 180.233 308.59C180.233 309.295 180.209 309.953 180.162 310.564C180.131 311.159 180.084 311.809 180.021 312.514L168.06 313.478C168.028 313.838 168.005 314.363 167.989 315.052C167.974 315.742 167.958 316.478 167.942 317.261C167.927 318.045 167.911 318.781 167.895 319.47C167.895 320.16 167.895 320.677 167.895 321.021C168.256 321.021 168.788 321.014 169.493 320.998C170.198 320.967 170.989 320.943 171.867 320.927C172.744 320.896 173.621 320.873 174.499 320.857C175.392 320.826 176.206 320.802 176.943 320.786C177.695 320.771 178.282 320.763 178.705 320.763L178.776 324.899C178.541 324.899 178.071 324.891 177.366 324.875C176.661 324.86 175.83 324.852 174.875 324.852C173.935 324.836 172.979 324.828 172.008 324.828C171.036 324.813 170.167 324.805 169.399 324.805C168.647 324.805 168.115 324.805 167.801 324.805C167.786 325.009 167.778 325.416 167.778 326.027C167.778 326.622 167.778 327.327 167.778 328.142C167.778 328.957 167.77 329.795 167.754 330.656C167.754 331.518 167.754 332.333 167.754 333.1C167.754 333.852 167.754 334.463 167.754 334.933C168.099 334.918 168.71 334.91 169.587 334.91C170.465 334.894 171.287 334.886 172.055 334.886C173.089 334.886 174.123 334.902 175.157 334.933C176.191 334.965 177.146 335.004 178.024 335.051C178.901 335.082 179.598 335.121 180.115 335.168C180.1 335.56 180.068 336.007 180.021 336.508C179.99 336.994 179.943 337.471 179.88 337.941C179.833 338.411 179.778 338.827 179.716 339.187C179.669 339.547 179.622 339.798 179.575 339.939ZM187.824 340.385C187.73 339.602 187.612 338.49 187.471 337.048C187.346 335.591 187.197 333.946 187.025 332.113C186.853 330.265 186.68 328.346 186.508 326.356C186.351 324.351 186.187 322.384 186.014 320.457C185.858 318.53 185.709 316.76 185.568 315.146C185.443 313.533 185.333 312.193 185.239 311.128C185.161 310.063 185.121 309.405 185.121 309.154C185.576 309.076 186.234 308.989 187.095 308.895C187.973 308.801 188.905 308.723 189.892 308.66C190.879 308.582 191.772 308.543 192.571 308.543C195.36 308.543 197.694 308.911 199.574 309.647C201.454 310.384 202.95 311.449 204.062 312.843C205.175 314.238 205.974 315.93 206.459 317.919C206.945 319.909 207.188 322.149 207.188 324.64C207.188 327.57 206.82 330.03 206.083 332.019C205.347 334.009 204.203 335.607 202.652 336.813C201.101 338.004 199.096 338.881 196.636 339.445C194.192 339.994 191.255 340.307 187.824 340.385ZM192.171 335.544C194.741 335.372 196.777 334.879 198.281 334.064C199.785 333.234 200.866 332.051 201.524 330.515C202.182 328.964 202.511 327.03 202.511 324.711C202.511 322.33 202.206 320.23 201.595 318.413C201 316.596 199.989 315.178 198.563 314.159C197.138 313.125 195.187 312.608 192.712 312.608C192.336 312.608 191.944 312.616 191.537 312.632C191.13 312.648 190.738 312.663 190.362 312.679C190.519 315.045 190.691 317.551 190.879 320.199C191.083 322.831 191.286 325.463 191.49 328.095C191.709 330.711 191.936 333.194 192.171 335.544ZM215.511 340.033C215.214 340.033 214.838 340.025 214.383 340.009C213.945 339.994 213.483 339.97 212.997 339.939C212.511 339.923 212.049 339.9 211.61 339.868C211.172 339.853 210.804 339.829 210.506 339.798C210.663 338.983 210.882 337.84 211.164 336.367C211.462 334.894 211.814 333.226 212.221 331.361C212.629 329.481 213.06 327.515 213.514 325.463C213.968 323.411 214.43 321.374 214.9 319.353C215.386 317.316 215.848 315.405 216.287 313.619C216.726 311.833 217.117 310.298 217.462 309.013C218.418 308.872 219.577 308.731 220.94 308.59C222.319 308.449 223.721 308.378 225.146 308.378C225.757 308.378 226.392 308.394 227.05 308.425C227.708 308.457 228.335 308.512 228.93 308.59C229.228 309.969 229.525 311.614 229.823 313.525C230.136 315.436 230.434 317.661 230.716 320.199C231.014 322.737 231.303 325.62 231.585 328.847C231.883 332.059 232.173 335.67 232.455 339.68C232.095 339.743 231.617 339.798 231.021 339.845C230.426 339.908 229.807 339.955 229.165 339.986C228.538 340.017 227.959 340.033 227.426 340.033C227.395 339.579 227.363 338.983 227.332 338.247C227.301 337.511 227.261 336.696 227.214 335.803C227.167 334.894 227.12 333.993 227.073 333.1C227.026 332.192 226.979 331.354 226.932 330.586C226.885 329.818 226.846 329.192 226.815 328.706C226.314 328.722 225.703 328.745 224.982 328.776C224.261 328.808 223.501 328.855 222.702 328.917C221.919 328.964 221.159 329.019 220.423 329.082C219.702 329.145 219.076 329.207 218.543 329.27C218.01 329.333 217.658 329.38 217.485 329.411C217.203 330.743 216.929 332.09 216.663 333.453C216.397 334.8 216.162 336.054 215.958 337.213C215.754 338.357 215.605 339.297 215.511 340.033ZM218.12 325.369C218.7 325.244 219.499 325.126 220.517 325.016C221.551 324.907 222.624 324.813 223.736 324.734C224.864 324.656 225.844 324.601 226.674 324.57C226.643 324.084 226.588 323.309 226.509 322.243C226.431 321.178 226.337 320.011 226.227 318.742C226.118 317.473 226.008 316.274 225.898 315.146C225.804 314.003 225.703 313.118 225.593 312.491C225.233 312.491 224.716 312.514 224.042 312.561C223.384 312.593 222.742 312.64 222.115 312.702C221.504 312.749 221.073 312.789 220.822 312.82C220.728 313.227 220.587 313.846 220.399 314.676C220.211 315.491 219.992 316.47 219.741 317.614C219.491 318.742 219.224 319.972 218.942 321.303C218.676 322.619 218.402 323.975 218.12 325.369ZM237.91 339.375C237.972 338.513 238.019 337.33 238.051 335.826C238.082 334.322 238.106 332.638 238.121 330.774C238.153 328.894 238.168 326.951 238.168 324.946C238.168 322.925 238.153 320.935 238.121 318.977C238.106 317.019 238.082 315.209 238.051 313.548C238.019 311.872 237.972 310.478 237.91 309.365C238.176 309.334 238.583 309.295 239.132 309.248C239.696 309.201 240.26 309.177 240.824 309.177C241.2 309.177 241.607 309.193 242.046 309.224C242.5 309.256 242.813 309.287 242.986 309.318C243.033 310.431 243.072 311.77 243.103 313.337C243.135 314.888 243.15 316.564 243.15 318.366C243.166 320.152 243.158 321.969 243.127 323.818C243.095 325.667 243.064 327.445 243.033 329.152C243.017 330.327 242.994 331.401 242.962 332.372C242.931 333.328 242.892 334.095 242.845 334.675C243.926 334.612 245.148 334.55 246.511 334.487C247.889 334.424 249.307 334.369 250.764 334.322C252.221 334.275 253.631 334.252 254.994 334.252C255.01 334.55 255.026 334.973 255.041 335.521C255.057 336.069 255.065 336.641 255.065 337.236C255.065 337.832 255.057 338.357 255.041 338.811C253.287 338.983 251.602 339.124 249.989 339.234C248.391 339.328 246.871 339.391 245.43 339.422C244.098 339.469 242.806 339.485 241.552 339.469C240.315 339.453 239.1 339.422 237.91 339.375Z" fill="#335035"/>
</svg>
