<svg width="135" height="63" viewBox="0 0 135 63" fill="none" xmlns="http://www.w3.org/2000/svg">
<path d="M2.35 61.423C2.35 60.577 2.35783 59.5195 2.3735 58.2505C2.40483 56.9658 2.43617 55.5558 2.4675 54.0205C2.5145 52.4695 2.5615 50.8558 2.6085 49.1795C2.6555 47.4875 2.71033 45.7955 2.773 44.1035C2.83567 42.3958 2.89833 40.7587 2.961 39.192C3.02367 37.6253 3.08633 36.1918 3.149 34.8915C3.21167 33.5912 3.27433 32.4945 3.337 31.6015C4.52767 31.3508 5.8045 31.1472 7.1675 30.9905C8.54617 30.8338 10.0893 30.7555 11.797 30.7555C13.7553 30.7555 15.4473 31.0218 16.873 31.5545C18.2987 32.0715 19.3953 32.8862 20.163 33.9985C20.9307 35.1108 21.3145 36.5365 21.3145 38.2755C21.3145 40.2808 20.9307 41.9493 20.163 43.281C19.411 44.597 18.2908 45.5762 16.8025 46.2185C15.3298 46.8608 13.5125 47.182 11.3505 47.182C10.7708 47.182 10.1285 47.1585 9.4235 47.1115C8.73417 47.0488 8.1075 46.9627 7.5435 46.853C7.52783 47.3387 7.50433 48.122 7.473 49.203C7.44167 50.2683 7.4025 51.506 7.3555 52.916C7.32417 54.326 7.29283 55.783 7.2615 57.287C7.23017 58.791 7.2145 60.2088 7.2145 61.5405C6.94817 61.5405 6.59567 61.5327 6.157 61.517C5.71833 61.517 5.25617 61.5092 4.7705 61.4935C4.3005 61.4935 3.84617 61.4778 3.4075 61.4465C2.9845 61.4308 2.632 61.423 2.35 61.423ZM7.52 42.8815C8.037 42.9598 8.61667 43.0303 9.259 43.093C9.90133 43.1557 10.5515 43.187 11.2095 43.187C12.2435 43.187 13.2227 43.046 14.147 42.764C15.0713 42.4663 15.8233 41.9728 16.403 41.2835C16.9983 40.5942 17.296 39.6385 17.296 38.4165C17.296 36.8498 16.8182 35.7688 15.8625 35.1735C14.9225 34.5782 13.677 34.2805 12.126 34.2805C11.5307 34.2805 10.8648 34.3118 10.1285 34.3745C9.39217 34.4372 8.5775 34.5233 7.6845 34.633C7.6845 34.727 7.67667 35.0482 7.661 35.5965C7.661 36.1292 7.65317 36.7637 7.6375 37.5C7.6375 38.2363 7.62967 38.9883 7.614 39.756C7.59833 40.508 7.58267 41.1738 7.567 41.7535C7.55133 42.3332 7.53567 42.7092 7.52 42.8815ZM42.976 61.2585C41.284 61.1645 39.6312 61.0783 38.0175 61C36.4195 60.9373 34.7667 60.8903 33.059 60.859C32.0563 60.8277 31.0067 60.7963 29.91 60.765C28.8133 60.7337 27.7637 60.7102 26.761 60.6945C26.667 58.2348 26.5965 55.8065 26.5495 53.4095C26.5182 51.0125 26.5025 48.733 26.5025 46.571C26.5025 42.67 26.526 39.4427 26.573 36.889C26.6357 34.3197 26.6983 32.5572 26.761 31.6015C29.5653 31.1315 32.166 30.779 34.563 30.544C36.96 30.2933 38.9653 30.1288 40.579 30.0505C42.1927 29.9565 43.211 29.9095 43.634 29.9095C43.634 30.6145 43.6105 31.2725 43.5635 31.8835C43.5322 32.4788 43.4852 33.129 43.4225 33.834L31.461 34.7975C31.4297 35.1578 31.4062 35.6827 31.3905 36.372C31.3748 37.0613 31.3592 37.7977 31.3435 38.581C31.3278 39.3643 31.3122 40.1007 31.2965 40.79C31.2965 41.4793 31.2965 41.9963 31.2965 42.341C31.6568 42.341 32.1895 42.3332 32.8945 42.3175C33.5995 42.2862 34.3907 42.2627 35.268 42.247C36.1453 42.2157 37.0227 42.1922 37.9 42.1765C38.793 42.1452 39.6077 42.1217 40.344 42.106C41.096 42.0903 41.6835 42.0825 42.1065 42.0825L42.177 46.2185C41.942 46.2185 41.472 46.2107 40.767 46.195C40.062 46.1793 39.2317 46.1715 38.276 46.1715C37.336 46.1558 36.3803 46.148 35.409 46.148C34.4377 46.1323 33.5682 46.1245 32.8005 46.1245C32.0485 46.1245 31.5158 46.1245 31.2025 46.1245C31.1868 46.3282 31.179 46.7355 31.179 47.3465C31.179 47.9418 31.179 48.6468 31.179 49.4615C31.179 50.2762 31.1712 51.1143 31.1555 51.976C31.1555 52.8377 31.1555 53.6523 31.1555 54.42C31.1555 55.172 31.1555 55.783 31.1555 56.253C31.5002 56.2373 32.1112 56.2295 32.9885 56.2295C33.8658 56.2138 34.6883 56.206 35.456 56.206C36.49 56.206 37.524 56.2217 38.558 56.253C39.592 56.2843 40.5477 56.3235 41.425 56.3705C42.3023 56.4018 42.9995 56.441 43.5165 56.488C43.5008 56.8797 43.4695 57.3262 43.4225 57.8275C43.3912 58.3132 43.3442 58.791 43.2815 59.261C43.2345 59.731 43.1797 60.1462 43.117 60.5065C43.07 60.8668 43.023 61.1175 42.976 61.2585ZM51.2252 61.705C51.1312 60.9217 51.0137 59.8093 50.8727 58.368C50.7474 56.911 50.5986 55.266 50.4262 53.433C50.2539 51.5843 50.0816 49.6652 49.9092 47.6755C49.7526 45.6702 49.5881 43.704 49.4157 41.777C49.2591 39.85 49.1102 38.0797 48.9692 36.466C48.8439 34.8523 48.7342 33.5128 48.6402 32.4475C48.5619 31.3822 48.5227 30.7242 48.5227 30.4735C48.9771 30.3952 49.6351 30.309 50.4967 30.215C51.3741 30.121 52.3062 30.0427 53.2932 29.98C54.2802 29.9017 55.1732 29.8625 55.9722 29.8625C58.7609 29.8625 61.0952 30.2307 62.9752 30.967C64.8552 31.7033 66.3514 32.7687 67.4637 34.163C68.5761 35.5573 69.3751 37.2493 69.8607 39.239C70.3464 41.2287 70.5892 43.469 70.5892 45.96C70.5892 48.8897 70.2211 51.3493 69.4847 53.339C68.7484 55.3287 67.6047 56.9267 66.0537 58.133C64.5027 59.3237 62.4974 60.201 60.0377 60.765C57.5937 61.3133 54.6562 61.6267 51.2252 61.705ZM55.5727 56.864C58.1421 56.6917 60.1787 56.1982 61.6827 55.3835C63.1867 54.5532 64.2677 53.3703 64.9257 51.835C65.5837 50.284 65.9127 48.3492 65.9127 46.0305C65.9127 43.6492 65.6072 41.5498 64.9962 39.7325C64.4009 37.9152 63.3904 36.4973 61.9647 35.479C60.5391 34.445 58.5886 33.928 56.1132 33.928C55.7372 33.928 55.3456 33.9358 54.9382 33.9515C54.5309 33.9672 54.1392 33.9828 53.7632 33.9985C53.9199 36.3642 54.0922 38.8708 54.2802 41.5185C54.4839 44.1505 54.6876 46.7825 54.8912 49.4145C55.1106 52.0308 55.3377 54.514 55.5727 56.864ZM78.9126 61.3525C78.615 61.3525 78.239 61.3447 77.7846 61.329C77.346 61.3133 76.8838 61.2898 76.3981 61.2585C75.9125 61.2428 75.4503 61.2193 75.0116 61.188C74.573 61.1723 74.2048 61.1488 73.9071 61.1175C74.0638 60.3028 74.2831 59.1592 74.5651 57.6865C74.8628 56.2138 75.2153 54.5453 75.6226 52.681C76.03 50.801 76.4608 48.8348 76.9151 46.7825C77.3695 44.7302 77.8316 42.6935 78.3016 40.6725C78.7873 38.6358 79.2495 36.7245 79.6881 34.9385C80.1268 33.1525 80.5185 31.6172 80.8631 30.3325C81.8188 30.1915 82.9781 30.0505 84.3411 29.9095C85.7198 29.7685 87.122 29.698 88.5476 29.698C89.1586 29.698 89.7931 29.7137 90.4511 29.745C91.1091 29.7763 91.7358 29.8312 92.3311 29.9095C92.6288 31.2882 92.9265 32.9332 93.2241 34.8445C93.5375 36.7558 93.8351 38.9805 94.1171 41.5185C94.4148 44.0565 94.7046 46.9392 94.9866 50.1665C95.2843 53.3782 95.5741 56.9893 95.8561 61C95.4958 61.0627 95.018 61.1175 94.4226 61.1645C93.8273 61.2272 93.2085 61.2742 92.5661 61.3055C91.9395 61.3368 91.3598 61.3525 90.8271 61.3525C90.7958 60.8982 90.7645 60.3028 90.7331 59.5665C90.7018 58.8302 90.6626 58.0155 90.6156 57.1225C90.5686 56.2138 90.5216 55.313 90.4746 54.42C90.4276 53.5113 90.3806 52.6732 90.3336 51.9055C90.2866 51.1378 90.2475 50.5112 90.2161 50.0255C89.7148 50.0412 89.1038 50.0647 88.3831 50.096C87.6625 50.1273 86.9026 50.1743 86.1036 50.237C85.3203 50.284 84.5605 50.3388 83.8241 50.4015C83.1035 50.4642 82.4768 50.5268 81.9441 50.5895C81.4115 50.6522 81.059 50.6992 80.8866 50.7305C80.6046 52.0622 80.3305 53.4095 80.0641 54.7725C79.7978 56.1198 79.5628 57.3732 79.3591 58.5325C79.1555 59.6762 79.0066 60.6162 78.9126 61.3525ZM81.5211 46.6885C82.1008 46.5632 82.8998 46.4457 83.9181 46.336C84.9521 46.2263 86.0253 46.1323 87.1376 46.054C88.2656 45.9757 89.2448 45.9208 90.0751 45.8895C90.0438 45.4038 89.989 44.6283 89.9106 43.563C89.8323 42.4977 89.7383 41.3305 89.6286 40.0615C89.519 38.7925 89.4093 37.594 89.2996 36.466C89.2056 35.3223 89.1038 34.4372 88.9941 33.8105C88.6338 33.8105 88.1168 33.834 87.4431 33.881C86.7851 33.9123 86.1428 33.9593 85.5161 34.022C84.9051 34.069 84.4743 34.1082 84.2236 34.1395C84.1296 34.5468 83.9886 35.1657 83.8006 35.996C83.6126 36.8107 83.3933 37.7898 83.1426 38.9335C82.892 40.0615 82.6256 41.2913 82.3436 42.623C82.0773 43.939 81.8031 45.2942 81.5211 46.6885ZM101.311 60.6945C101.374 59.8328 101.421 58.65 101.452 57.146C101.483 55.642 101.507 53.9578 101.523 52.0935C101.554 50.2135 101.57 48.2708 101.57 46.2655C101.57 44.2445 101.554 42.2548 101.523 40.2965C101.507 38.3382 101.483 36.5287 101.452 34.868C101.421 33.1917 101.374 31.7973 101.311 30.685C101.577 30.6537 101.985 30.6145 102.533 30.5675C103.097 30.5205 103.661 30.497 104.225 30.497C104.601 30.497 105.008 30.5127 105.447 30.544C105.901 30.5753 106.215 30.6067 106.387 30.638C106.434 31.7503 106.473 33.0898 106.505 34.6565C106.536 36.2075 106.552 37.8838 106.552 39.6855C106.567 41.4715 106.559 43.2888 106.528 45.1375C106.497 46.9862 106.465 48.7643 106.434 50.472C106.418 51.647 106.395 52.7202 106.364 53.6915C106.332 54.6472 106.293 55.4148 106.246 55.9945C107.327 55.9318 108.549 55.8692 109.912 55.8065C111.291 55.7438 112.709 55.689 114.166 55.642C115.623 55.595 117.033 55.5715 118.396 55.5715C118.411 55.8692 118.427 56.2922 118.443 56.8405C118.458 57.3888 118.466 57.9607 118.466 58.556C118.466 59.1513 118.458 59.6762 118.443 60.1305C116.688 60.3028 115.004 60.4438 113.39 60.5535C111.792 60.6475 110.272 60.7102 108.831 60.7415C107.499 60.7885 106.207 60.8042 104.954 60.7885C103.716 60.7728 102.502 60.7415 101.311 60.6945Z" fill="white"/>
<path d="M122.407 13.8888C121.666 13.9336 119.445 13.6333 117.186 12.3238L116.425 13.6358C117.757 14.4077 119.029 14.8751 120.116 15.1357L119.632 17.6548C117.979 19.341 115.33 21.4942 112.72 22.9256C111.612 23.3553 108.571 24.8281 107.349 24.8532C108.108 25.3575 108.489 26.1774 108.536 26.9646C108.543 27.0839 108.543 27.2034 108.537 27.3227L118.298 24.5976L117.982 26.2388C115.067 25.9119 112.071 27.1879 110.34 29.7945C107.879 33.5024 108.893 38.5255 112.6 40.9863C116.306 43.447 121.329 42.4318 123.791 38.7239C126.252 35.0161 125.238 29.9929 121.532 27.532C120.893 27.1079 120.198 26.7772 119.466 26.5499L121.034 18.3943L121.857 18.8354C122.144 18.6707 122.805 18.2769 122.511 17.3766L121.362 16.6887L121.612 15.3842C121.948 15.4123 122.247 15.4174 122.498 15.4022L122.407 13.8888ZM108.529 11.4048C108.027 11.0684 107.537 10.8166 107.132 10.7497C106.531 10.6502 105.819 12.0171 106.241 12.9213C106.725 13.2872 107.211 13.5504 107.777 13.8084L107.575 14.8242L99.435 9.41984L98.5963 10.6832L99.525 11.2998L99.1385 12.5153C96.0367 11.9209 92.7327 13.1859 90.8799 15.9769C88.4182 19.6848 89.4324 24.7081 93.1391 27.1689C95.6645 28.8455 98.8006 28.9079 101.322 27.6051L100.1 26.5109C98.1563 27.3101 95.8658 27.1589 93.9778 25.9055C90.9533 23.8976 90.1344 19.8401 92.1425 16.8152C93.6202 14.5893 96.2074 13.5592 98.6761 13.9693L97.2626 18.415C97.5395 18.4394 97.8183 18.5256 98.0685 18.6918L98.6436 19.0736L100.133 14.3898C100.517 14.5508 100.885 14.7477 101.232 14.9779C102.148 15.5857 102.86 16.3822 103.354 17.2802L98.8633 19.2194L100.37 20.2198L103.926 18.6846C104.27 19.9235 104.249 21.258 103.827 22.515L105.125 23.3764C105.796 21.6572 105.841 19.7889 105.321 18.0819L107.08 17.3227L105.791 23.8186L107.181 24.7412L109.202 14.4143C109.643 14.598 110.132 14.8054 110.692 15.0596C111.905 15.6108 111.973 14.8005 111.38 13.969C111.172 13.677 109.812 12.2645 108.529 11.4048ZM119.143 20.199L118.617 22.9344L112.964 24.5127C113.126 24.4289 113.288 24.3433 113.449 24.2548C115.505 23.1267 117.518 21.6301 119.143 20.199ZM100.838 12.1714L106.492 15.925L104.746 16.679C104.138 15.5177 103.238 14.489 102.071 13.7145C101.597 13.4 101.102 13.1427 100.594 12.94L100.838 12.1714ZM120.693 28.7954C123.717 30.8032 124.536 34.8606 122.528 37.8855C120.52 40.9105 116.463 41.7307 113.438 39.7229C110.414 37.715 109.595 33.6576 111.603 30.6327C112.993 28.539 115.365 27.5025 117.696 27.728L116.528 33.8048L118.017 34.0903L119.178 28.0483C119.713 28.2314 120.222 28.4825 120.693 28.7954ZM97.2297 19.9551C97.1625 19.9105 97.1062 19.8987 96.9634 19.9437C96.8204 19.9888 96.6309 20.1159 96.4982 20.282C96.3656 20.4482 96.2947 20.6384 96.292 20.791C96.2894 20.9429 96.3207 21.0762 96.5199 21.2704L104.267 28.2071L104.276 28.2154C104.896 28.806 105.365 28.9196 105.722 28.8835C106.079 28.8473 106.404 28.6344 106.655 28.2832C106.906 27.9319 107.047 27.4572 107.023 27.0554C106.999 26.6535 106.858 26.3469 106.509 26.1155L97.2297 19.9551Z" fill="white"/>
</svg>
