<svg width="32" height="32" viewBox="0 0 32 32" fill="none" xmlns="http://www.w3.org/2000/svg">
<path d="M8.067 10.733C6.32121 12.4789 5.33821 14.8454 5.33315 17.3144C5.32809 19.7834 6.30138 22.1539 8.04 23.907C10 19.373 13.493 15.587 17.853 13.333C14.0896 16.5173 11.5492 20.9099 10.666 25.76C14.133 27.4 18.4 26.8 21.266 23.933C25.253 19.947 26.373 9.07997 26.613 6.09297C26.6212 5.99818 26.6086 5.90274 26.5761 5.81335C26.5435 5.72395 26.4918 5.64276 26.4245 5.57549C26.3572 5.50821 26.276 5.45647 26.1866 5.42391C26.0972 5.39134 26.0018 5.37873 25.907 5.38697C22.92 5.62697 12.053 6.74697 8.067 10.733Z" fill="url(#paint0_linear_93_317)"/>
<defs>
<linearGradient id="paint0_linear_93_317" x1="15.9743" y1="5.38452" x2="15.9743" y2="26.6592" gradientUnits="userSpaceOnUse">
<stop stop-color="#82A584"/>
<stop offset="1" stop-color="#335035"/>
</linearGradient>
</defs>
</svg>
