<svg width="20" height="20" viewBox="0 0 20 20" fill="none" xmlns="http://www.w3.org/2000/svg">
<path d="M16.024 12.7171L13.907 12.4751C13.6582 12.4458 13.406 12.4734 13.1694 12.5557C12.9328 12.6379 12.718 12.7728 12.541 12.9501L11.007 14.4831C8.64207 13.2798 6.71986 11.3572 5.517 8.99206L7.057 7.45006C7.417 7.09206 7.592 6.59206 7.533 6.08306L7.292 3.98306C7.24462 3.5763 7.04925 3.20118 6.74313 2.92917C6.437 2.65716 6.04151 2.50727 5.632 2.50806H4.192C3.25 2.50806 2.467 3.29206 2.525 4.23306C2.967 11.3501 8.658 17.0331 15.767 17.4751C16.707 17.5331 17.491 16.7501 17.491 15.8081V14.3671C17.4931 13.9597 17.3446 13.5659 17.074 13.2613C16.8034 12.9568 16.4288 12.7629 16.024 12.7171Z" fill="url(#paint0_linear_93_319)"/>
<defs>
<linearGradient id="paint0_linear_93_319" x1="10.0065" y1="2.50806" x2="10.0065" y2="17.4781" gradientUnits="userSpaceOnUse">
<stop stop-color="#82A584"/>
<stop offset="1" stop-color="#335035"/>
</linearGradient>
</defs>
</svg>
