<svg width="32" height="32" viewBox="0 0 32 32" fill="none" xmlns="http://www.w3.org/2000/svg">
<path d="M25.9461 13.333C25.8144 13.5274 25.7364 13.7532 25.72 13.9875C25.7037 14.2218 25.7496 14.4562 25.8531 14.667C26.1831 15.439 26.4171 16.249 26.5461 17.08C26.8893 19.227 26.5683 21.4276 25.6261 23.387C25.5116 23.6016 25.3405 23.7809 25.1315 23.9053C24.9224 24.0298 24.6833 24.0947 24.4401 24.093H7.57308C7.32817 24.0936 7.08784 24.0267 6.87844 23.8997C6.66905 23.7727 6.4987 23.5905 6.38608 23.373C5.53276 21.6416 5.16527 19.711 5.32276 17.7872C5.48026 15.8633 6.15684 14.0183 7.28039 12.4487C8.40394 10.879 9.93235 9.64373 11.7027 8.87438C13.473 8.10504 15.419 7.83049 17.3331 8.08001C18.3011 8.19401 19.2491 8.44501 20.1461 8.82701C20.357 8.93024 20.5915 8.97591 20.8257 8.9594C21.06 8.94289 21.2857 8.8648 21.4801 8.73301C21.6825 8.5996 21.8447 8.41351 21.9492 8.19477C22.0538 7.97603 22.0967 7.73293 22.0733 7.49163C22.05 7.25032 21.9613 7.01995 21.8167 6.82531C21.6722 6.63068 21.4773 6.47914 21.2531 6.38701C18.6774 5.28236 15.8191 5.01743 13.0843 5.62985C10.3494 6.24227 7.87711 7.7009 6.01852 9.79853C4.15993 11.8962 3.00958 14.5261 2.73089 17.3148C2.4522 20.1035 3.05935 22.9091 4.46608 25.333C4.69868 25.7363 5.03284 26.0717 5.43531 26.3057C5.83777 26.5397 6.29451 26.6643 6.76008 26.667H25.2261C25.696 26.6687 26.158 26.5462 26.5654 26.3119C26.9728 26.0777 27.3111 25.74 27.5461 25.333C28.576 23.5484 29.1783 21.5493 29.3056 19.4927C29.433 17.4362 29.0819 15.3781 28.2801 13.48C28.1784 13.2637 28.0205 13.0786 27.8229 12.9442C27.6252 12.8098 27.3951 12.731 27.1566 12.716C26.918 12.7009 26.6798 12.7503 26.4669 12.8588C26.2539 12.9674 26.0741 13.1311 25.9461 13.333Z" fill="url(#paint0_linear_93_321)"/>
<path d="M14.1199 16.787C13.6196 17.2875 13.3385 17.9662 13.3386 18.6738C13.3387 19.3815 13.6199 20.0602 14.1204 20.5605C14.6209 21.0608 15.2996 21.3419 16.0072 21.3418C16.7149 21.3417 17.3936 21.0605 17.8939 20.56L25.4399 9.23999L14.1199 16.787Z" fill="url(#paint1_linear_93_321)"/>
<defs>
<linearGradient id="paint0_linear_93_321" x1="15.998" y1="5.30762" x2="15.998" y2="26.667" gradientUnits="userSpaceOnUse">
<stop stop-color="#82A584"/>
<stop offset="1" stop-color="#335035"/>
</linearGradient>
<linearGradient id="paint1_linear_93_321" x1="19.3893" y1="9.23999" x2="19.3893" y2="21.3418" gradientUnits="userSpaceOnUse">
<stop stop-color="#82A584"/>
<stop offset="1" stop-color="#335035"/>
</linearGradient>
</defs>
</svg>
