<?xml version="1.0" encoding="UTF-8" standalone="no"?>
<!-- Created with Inkscape (http://www.inkscape.org/) -->

<svg
   xmlns:dc="http://purl.org/dc/elements/1.1/"
   xmlns:cc="http://creativecommons.org/ns#"
   xmlns:rdf="http://www.w3.org/1999/02/22-rdf-syntax-ns#"
   xmlns:svg="http://www.w3.org/2000/svg"
   xmlns="http://www.w3.org/2000/svg"
   xmlns:sodipodi="http://sodipodi.sourceforge.net/DTD/sodipodi-0.dtd"
   xmlns:inkscape="http://www.inkscape.org/namespaces/inkscape"
   width="250"
   height="50"
   id="svg2"
   version="1.1"
   inkscape:version="0.48.1 "
   sodipodi:docname="cervelo logo.svg">
  <defs
     id="defs4" />
  <sodipodi:namedview
     id="base"
     pagecolor="#ffffff"
     bordercolor="#666666"
     borderopacity="1.0"
     inkscape:pageopacity="0.0"
     inkscape:pageshadow="2"
     inkscape:zoom="1.56"
     inkscape:cx="225.92"
     inkscape:cy="116.25"
     inkscape:document-units="px"
     inkscape:current-layer="layer1"
     showgrid="true"
     inkscape:window-width="1280"
     inkscape:window-height="964"
     inkscape:window-x="-4"
     inkscape:window-y="-4"
     inkscape:window-maximized="1">
    <inkscape:grid
       type="xygrid"
       id="grid2985"
       units="px"
       empspacing="2"
       dotted="true"
       visible="true"
       enabled="true"
       snapvisiblegridlinesonly="true"
       spacingx="2px"
       spacingy="2px" />
  </sodipodi:namedview>
  <metadata
     id="metadata7">
    <rdf:RDF>
      <cc:Work
         rdf:about="">
        <dc:format>image/svg+xml</dc:format>
        <dc:type
           rdf:resource="http://purl.org/dc/dcmitype/StillImage" />
        <dc:title></dc:title>
      </cc:Work>
    </rdf:RDF>
  </metadata>
  <g
     inkscape:label="Ebene 1"
     inkscape:groupmode="layer"
     id="layer1"
     transform="translate(0,-1002.4)">
    <g
       id="g3330"
       transform="matrix(1.25,0,0,-1.25,206.05,1014.3)"
       style="fill:#000000">
      <path
         inkscape:connector-curvature="0"
         d="m 0,0 -9.942,0 -7.406,-24.022 11.174,0 L 1.082,0 0,0 z m -87.158,-5.268 -9.62,0 -6.812,-18.754 10.273,0 c 0,0 3.739,9.47 3.897,9.87 0.414,0.313 1.562,1.161 2.786,1.912 1.508,0.927 2.709,1.238 3.313,1.125 -0.04,-0.314 -0.07,-0.719 -0.07,-1.148 0,-0.395 0.03,-0.811 0.111,-1.191 0.226,-1.048 1.03,-2.804 3.865,-2.797 1.517,0 2.542,0.22 3.318,0.731 0.788,0.519 1.222,1.256 1.632,2.203 l 0,0.01 c 1.039,2.52 0.401,4.132 -0.318,5.041 -0.767,0.97 -1.761,1.325 -1.872,1.362 -2.545,0.912 -5.449,0.769 -8.383,-0.417 -0.758,-0.305 -1.464,-0.641 -2.07,-0.95 0.04,0.101 1.094,3 1.094,3 l -1.149,0 z m 46.069,0 -6.332,0 c 0,0 -8.551,-8.598 -9.691,-9.743 -0.635,1.313 -4.713,9.743 -4.713,9.743 l -13.324,0 6.186,-11.673 3.804,-7.082 0.479,0 7.343,0 18.144,18.754 -1.896,0 z M -156.37,-9.543 c -1.96,-1.966 -3.01,-4.256 -2.97,-6.447 0,-2.276 1.22,-4.38 3.31,-5.926 2.33,-1.711 7.76,-4.135 18.06,-1.14 l 0.1,0.02 0,0.01 1.61,0.759 c 0,0 1.31,0.808 1.31,0.808 0.72,0.491 2.05,1.709 2.11,1.76 l 0.61,0.56 -2.19,2.252 -0.55,-0.331 c -4.28,-2.593 -8.32,-3.254 -11.1,-1.813 -1.42,0.737 -2.36,1.987 -2.44,3.262 -0.13,1.805 0.61,3.448 2.02,4.508 1.83,1.378 4.49,1.604 7.36,0.718 0,-0.28 -0.1,-0.597 -0.1,-0.897 0,-0.04 0,-0.07 0,-0.103 0,-0.789 0.35,-1.899 1.76,-2.701 l 0,-0.03 0.1,-0.02 c 3.01,-1.24 5.12,0.03 6.01,1.495 0.56,0.902 0.73,1.973 0.47,2.939 -0.23,0.922 -0.82,1.669 -1.69,2.161 l 0.1,-0.06 c -1.65,1.259 -3.13,2.037 -4.79,2.523 -1.59,0.464 -3.25,0.62 -5.1,0.764 -5.53,0.08 -10.73,-1.818 -13.98,-5.075 M 5.761,-6.52 c -3.564,-1.559 -6.285,-4.12 -7.278,-6.849 -0.263,-0.724 -0.393,-1.435 -0.393,-2.126 0,-1.927 1.012,-3.697 2.968,-5.119 2.268,-1.647 5.663,-2.742 9.561,-3.083 3.784,-0.332 7.892,0.194 11.271,1.443 3.784,1.397 6.393,3.606 7.344,6.219 1.021,2.806 0.166,5.73 -2.287,7.821 -2.417,2.06 -5.952,3.403 -9.953,3.783 C 13.573,-4.105 9.583,-4.847 5.761,-6.52 m 4.312,-11.705 c -0.373,0.911 -0.317,2.214 0.154,3.575 0.498,1.439 1.39,2.793 2.512,3.811 1.056,0.958 2.217,1.508 3.183,1.508 1.071,0 1.566,-0.662 1.794,-1.217 0.373,-0.911 0.317,-2.215 -0.154,-3.576 -0.499,-1.44 -1.391,-2.794 -2.513,-3.81 -1.055,-0.959 -2.215,-1.508 -3.183,-1.508 -1.07,0 -1.566,0.661 -1.793,1.217 M -115.58,-4.47 c -6.34,-0.436 -13.62,-4.358 -14.83,-10.165 l 0,-0.06 0,-0.06 c -0.27,-4.736 2.2,-7.903 7.13,-9.158 3.75,-0.954 8.21,-1.025 10.67,-0.601 1.54,0.29 3.06,0.843 4.51,1.647 1.32,0.731 2.6,1.664 3.92,2.853 l 0.71,0.648 -2.02,1.543 -0.49,-0.375 c 0,-0.01 -1.45,-1.103 -3.31,-1.723 -2,-0.667 -5.17,-1.25 -7.01,-1.073 l 0,0 0,0 c -2.15,-0.04 -3.52,1.307 -3.99,2.109 -0.18,0.314 -0.24,0.795 -0.24,1.266 0,0.363 0,0.709 0.1,0.98 l 17.6,0 0.1,0.734 c 0,0.428 0.1,0.846 0.1,1.256 0,2.847 -0.9,5.251 -2.62,7.005 -2.26,2.302 -5.95,3.457 -10.12,3.169 m 4.17,-5.613 c 0.54,-0.535 0.79,-1.184 0.91,-1.686 -1.33,0 -6.88,0 -8.84,0 0.81,1.138 2.35,2.73 4.69,2.763 1.42,0.014 2.51,-0.346 3.24,-1.07 m 81.872,5.613 c -6.336,-0.436 -13.616,-4.358 -14.829,-10.165 l -0.01,-0.06 0,-0.06 c -0.273,-4.736 2.189,-7.902 7.12,-9.158 3.753,-0.954 8.211,-1.025 10.674,-0.601 1.546,0.29 3.059,0.843 4.51,1.647 1.324,0.732 2.605,1.665 3.917,2.853 l 0.715,0.648 -2.017,1.543 -0.489,-0.375 c -0.01,-0.01 -1.451,-1.103 -3.317,-1.723 -1.999,-0.667 -5.166,-1.25 -7.006,-1.073 l -0.05,0 -0.05,0 c -2.147,-0.04 -3.517,1.307 -3.987,2.108 -0.185,0.315 -0.247,0.797 -0.247,1.269 0,0.362 0.04,0.708 0.08,0.978 l 17.598,0 0.06,0.734 c 0.04,0.428 0.05,0.846 0.05,1.256 0,2.847 -0.893,5.251 -2.616,7.005 -2.261,2.302 -5.949,3.457 -10.12,3.169 m 4.173,-5.613 c 0.537,-0.535 0.789,-1.184 0.911,-1.686 -1.332,-10e-4 -6.883,0 -8.84,0 0.808,1.138 2.346,2.73 4.684,2.763 1.426,0.014 2.518,-0.346 3.245,-1.07 m 9.063,13.824 -9.817,0 -5.515,-7.505 7.024,-0.021 10.884,7.526 -2.576,0 z"
         style="fill:#000000;fill-opacity:1;fill-rule:nonzero;stroke:none"
         id="path3332" />
    </g>
  </g>
</svg>
